PathFileType	4	(X/Y/Z)	s01c0301.trc
DataRate	CameraRate	NumFrames	NumMarkers	Units	OrigDataRate	OrigDataStartFrame	OrigNumFrames
200	200	4	48	mm	200	1500	2000
Frame#	Time	racr			lacr			c7			jug			rlel			rdr			llel			ldr			s2			lic			ric			lasi			rasi			rpsi			lpsi			rgt			lgt			rth1			rth2			rth3			rth4			rlfc			rsh1			rsh2			rsh3			rsh4			rlmal			rmmal			rcal			rtoe			rmt5			lth1			lth2			lth4			lth3			llfc			lsh1			lsh2			lsh3			lsh4			llmal			lmmal			lcal			ltoe			lmt5			SBIKE			LBIKE			RBIKE			
		X1	Y1	Z1	X2	Y2	Z2	X3	Y3	Z3	X4	Y4	Z4	X5	Y5	Z5	X6	Y6	Z6	X7	Y7	Z7	X8	Y8	Z8	X9	Y9	Z9	X10	Y10	Z10	X11	Y11	Z11	X12	Y12	Z12	X13	Y13	Z13	X14	Y14	Z14	X15	Y15	Z15	X16	Y16	Z16	X17	Y17	Z17	X18	Y18	Z18	X19	Y19	Z19	X20	Y20	Z20	X21	Y21	Z21	X22	Y22	Z22	X23	Y23	Z23	X24	Y24	Z24	X25	Y25	Z25	X26	Y26	Z26	X27	Y27	Z27	X28	Y28	Z28	X29	Y29	Z29	X30	Y30	Z30	X31	Y31	Z31	X32	Y32	Z32	X33	Y33	Z33	X34	Y34	Z34	X35	Y35	Z35	X36	Y36	Z36	X37	Y37	Z37	X38	Y38	Z38	X39	Y39	Z39	X40	Y40	Z40	X41	Y41	Z41	X42	Y42	Z42	X43	Y43	Z43	X44	Y44	Z44	X45	Y45	Z45	X46	Y46	Z46	X47	Y47	Z47	X48	Y48	Z48	
1500	7.5000	714.108313	1365.053443	-138.332097	715.311069	1311.405937	-466.048824	698.216343	1414.161628	-294.880415	678.079870	1249.598556	-287.727424	666.742792	1092.245025	-20.679558	735.795036	846.800430	-81.848689	576.366497	1061.951600	-569.137746	711.802487	877.156350	-457.716343	157.165278	1229.120825	-238.236126	306.410202	1218.614838	-434.962268	331.629662	1226.678339	-108.232089	308.781357	1167.498587	-406.085831	350.538557	1172.785166	-136.230434	194.319477	1270.331675	-193.072373	181.226294	1267.762383	-298.695950	282.698518	1110.636129	-66.112610	242.468855	1083.777361	-438.441139	363.833754	1004.591565	-61.613061	414.645474	940.112176	-73.497622	463.883889	865.956122	-89.354751	452.934532	970.944043	-100.006272	479.659394	756.741825	-114.596469	378.696895	695.073644	-73.007421	311.141552	643.598685	-73.323027	234.869580	597.394691	-78.815792	336.104641	606.902110	-113.579063	124.496918	543.843219	-91.852979	155.707846	517.675357	-168.284902	83.736662	565.000296	-145.401797	182.109480	311.095383	-144.039261	114.210127	390.747515	-70.192531	297.712756	965.176119	-441.923335	362.648267	904.921147	-442.651527	401.056794	943.476796	-439.499544	419.556238	841.947133	-426.283083	471.202933	740.598018	-410.184296	403.584629	647.964888	-446.254194	376.467366	565.383527	-441.967538	347.492945	485.374310	-431.344551	430.552089	549.882088	-417.034116	300.537070	368.785877	-421.601435	337.815951	373.328580	-342.890753	247.240110	348.934689	-381.986690	503.728249	245.728546	-381.711135	398.842604	253.454293	-449.981412	-227.583056	890.943787	-253.424999	-21.190204	80.246435	-454.141333	-21.141052	80.429063	-53.824170	
1501	7.5050	713.546273	1365.419660	-137.891067	716.327814	1311.053988	-465.286871	698.302313	1414.446660	-294.777065	678.127262	1249.825520	-287.335164	666.064455	1092.176703	-21.219580	735.701193	846.921885	-82.075858	578.793432	1061.965653	-570.133448	712.287881	875.865972	-457.817102	156.486379	1227.956934	-240.976464	305.536319	1215.821071	-436.821322	330.982551	1227.613768	-109.954127	309.202433	1165.658627	-407.600502	349.939719	1173.415072	-137.367693	193.285894	1269.562750	-195.727735	181.037678	1266.224155	-301.314202	282.752301	1111.916042	-67.070445	241.881273	1080.661245	-439.402328	366.331759	1007.686742	-61.377452	418.844140	944.516416	-73.153942	469.852261	871.551566	-89.816019	456.209031	976.189122	-100.275853	486.708753	762.126268	-114.281027	384.835560	700.930939	-73.137450	316.674883	650.684298	-73.208502	239.502971	605.915701	-78.600619	340.615181	613.924307	-113.917902	127.756235	553.082008	-91.870305	159.613049	528.119773	-169.150617	86.766972	574.821597	-145.057348	187.358790	321.731857	-144.447346	118.952162	400.637170	-70.337526	293.377251	961.871078	-442.459372	356.661578	899.719597	-443.034890	396.007637	937.153320	-440.366215	411.813502	835.245165	-426.522915	463.379837	733.554209	-410.500163	397.560048	640.362010	-447.319742	371.109367	557.617701	-442.785304	342.821105	477.319609	-432.080901	424.929354	542.667995	-416.844366	296.641757	359.720415	-421.805581	334.876211	365.481163	-344.341815	243.785704	340.791864	-382.323732	499.279758	234.820649	-381.464930	394.506160	243.431826	-449.883256	-227.610574	890.929942	-253.469227	-21.217749	80.231498	-454.150981	-21.151235	80.430631	-53.827015	
1502	7.5100	712.838326	1365.872641	-137.427245	717.445045	1310.891989	-464.433330	698.354443	1414.819973	-294.567540	678.195593	1250.221310	-286.968487	665.554485	1092.089448	-21.864368	735.601997	847.073834	-82.344426	581.531726	1062.023370	-571.107076	712.602580	874.835183	-458.053041	156.139099	1226.920071	-243.851346	304.729021	1213.450127	-438.748108	330.303313	1228.563296	-111.669623	309.624530	1163.892326	-409.329932	349.320518	1174.089398	-138.558201	192.309944	1268.910273	-198.642909	181.064501	1264.782094	-304.038688	282.688940	1113.384058	-68.352765	240.999178	1077.970001	-440.550728	368.710264	1011.098622	-61.194602	422.778218	949.275701	-72.790504	475.597055	877.498833	-89.537491	459.276308	981.772418	-100.290606	493.244809	767.607741	-113.649924	391.023315	707.444619	-72.929438	322.330353	657.853672	-73.182411	244.504142	614.317255	-78.626079	345.599153	621.009684	-114.113398	131.660983	562.735194	-91.865184	163.631561	537.992835	-169.362711	90.312076	584.521321	-144.725211	193.192382	332.198110	-144.890355	124.218321	410.339602	-70.430461	288.914393	958.846501	-442.988228	350.316577	894.747053	-443.456839	390.803724	931.046268	-441.816276	403.209927	828.863941	-427.500530	455.005712	726.844719	-410.884077	391.301267	632.863326	-448.119055	365.637486	549.753846	-443.396562	337.843101	469.490481	-432.967641	419.010221	535.606296	-416.571607	292.139633	350.631488	-421.572287	331.138220	357.877131	-345.665844	239.809545	333.165205	-383.069532	493.851447	223.558855	-380.624643	389.703037	233.860067	-449.785812	-227.606419	890.948455	-253.506040	-21.218198	80.237735	-454.145688	-21.148285	80.417909	-53.834723	
1503	7.5150	712.107358	1366.429631	-136.742605	718.633133	1310.851269	-463.443605	698.378703	1415.274848	-294.252295	678.336264	1250.693505	-286.512364	664.939016	1092.120314	-22.513843	735.585526	847.296578	-82.568170	584.732419	1062.064889	-571.727131	712.990970	873.805546	-458.270465	155.778501	1225.991883	-246.800563	304.130819	1211.611429	-440.595060	329.483777	1229.360569	-113.557138	309.963530	1162.063155	-411.137513	348.675904	1174.875992	-139.830204	191.435236	1268.356966	-201.669394	181.187297	1263.612400	-306.954386	282.269413	1114.696601	-69.487876	239.873285	1075.675196	-441.781670	370.684279	1014.623194	-61.100163	426.346152	954.138579	-72.334701	480.967045	883.688198	-88.912269	462.001425	987.518754	-100.141864	499.639881	773.520819	-112.757217	397.473642	713.979825	-72.749245	328.173365	665.223404	-73.126120	249.782922	622.556811	-78.775773	351.006301	628.024273	-114.061381	136.185375	572.084071	-91.916917	168.252281	547.598074	-169.684907	94.056688	593.412955	-145.058551	199.711503	342.459896	-145.158379	130.020346	419.856628	-70.660644	284.400306	956.083311	-443.604160	343.843613	890.061816	-443.987259	385.341303	925.203614	-442.865586	394.717808	823.058726	-428.132878	446.117734	720.349319	-411.354373	384.849544	625.448698	-448.742463	359.737185	542.138487	-444.031489	332.593162	461.675128	-433.713876	412.878803	528.564801	-416.097926	287.019393	343.229123	-422.604206	326.659088	350.540044	-346.865933	235.587796	325.897339	-383.148668	488.224724	213.172022	-380.186742	384.313272	224.645763	-449.573123	-227.604133	890.935465	-253.530811	-21.201906	80.210623	-454.147046	-21.160576	80.430697	-53.832976	
